{
  "source": "C:\\Users\\Peter\\Desktop\\stuff\\MIUN\\quantitative_research\\video_compression\\videos\\BVI-HD\\BVI-HD_CDVL_videos\\ORIG\\TreeTrunk_1920x1080_50fps.mp4",
  "output": "C:\\Users\\Peter\\Desktop\\stuff\\MIUN\\quantitative_research\\video_compression\\compressed_videos\\BVI-HD\\h264\\1\\TreeTrunk_1920x1080_50fps_h264.mp4",
  "codec": "h264",
  "ok": "Input #0, mov,mp4,m4a,3gp,3g2,mj2, from 'C:\\Users\\Peter\\Desktop\\stuff\\MIUN\\quantitative_research\\video_compression\\videos\\BVI-HD\\BVI-HD_CDVL_videos\\ORIG\\TreeTrunk_1920x1080_50fps.mp4':\n  Metadata:\n    major_brand     : isom\n    minor_version   : 512\n    compatible_brands: isomiso2avc1mp41\n    encoder         : Lavf54.28.101\n  Duration: 00:00:05.00, start: 0.000000, bitrate: 622415 kb/s\n  Stream #0:0[0x1](und): Video: h264 (High 4:4:4 Predictive) (avc1 / 0x31637661), yuv420p(progressive), 1920x1080, 622410 kb/s, 50 fps, 50 tbr, 50 tbn (default)\n    Metadata:\n      handler_name    : VideoHandler\n      vendor_id       : [0][0][0][0]\n[out#0/mp4 @ 000002ea6d2af740] Codec AVOption b:a (set bitrate (in bits/s)) has not been used for any stream. The most likely reason is either wrong type (e.g. a video option with no video streams) or that it is a private option of some decoder which was not actually used for any stream.\nStream mapping:\n  Stream #0:0 -> #0:0 (h264 (native) -> h264 (libx264))\nPress [q] to stop, [?] for help\n[libx264 @ 000002ea6dfb0340] using cpu capabilities: MMX2 SSE2Fast SSSE3 SSE4.2 AVX FMA3 BMI2 AVX2\n[libx264 @ 000002ea6dfb0340] profile High, level 5.0, 4:2:0, 8-bit\n[libx264 @ 000002ea6dfb0340] 264 - core 165 r3222 b35605a - H.264/MPEG-4 AVC codec - Copyleft 2003-2025 - http://www.videolan.org/x264.html - options: cabac=1 ref=5 deblock=1:0:0 analyse=0x3:0x113 me=hex subme=8 psy=1 psy_rd=1.00:0.00 mixed_ref=1 me_range=16 chroma_me=1 trellis=2 8x8dct=1 cqm=0 deadzone=21,11 fast_pskip=1 chroma_qp_offset=-2 threads=18 lookahead_threads=3 sliced_threads=0 nr=0 decimate=1 interlaced=0 bluray_compat=0 constrained_intra=0 bframes=3 b_pyramid=2 b_adapt=1 b_bias=0 direct=3 weightb=1 open_gop=0 weightp=2 keyint=250 keyint_min=25 scenecut=40 intra_refresh=0 rc_lookahead=50 rc=cbr mbtree=1 bitrate=1000 ratetol=1.0 qcomp=0.60 qpmin=0 qpmax=69 qpstep=4 vbv_maxrate=1000 vbv_bufsize=1000 nal_hrd=none filler=0 ip_ratio=1.40 aq=1:1.00\nOutput #0, mp4, to 'C:\\Users\\Peter\\Desktop\\stuff\\MIUN\\quantitative_research\\video_compression\\compressed_videos\\BVI-HD\\h264\\1\\TreeTrunk_1920x1080_50fps_h264.mp4':\n  Metadata:\n    major_brand     : isom\n    minor_version   : 512\n    compatible_brands: isomiso2avc1mp41\n    encoder         : Lavf62.3.100\n  Stream #0:0(und): Video: h264 (avc1 / 0x31637661), yuv420p(tv, progressive), 1920x1080, q=2-31, 1000 kb/s, 50 fps, 12800 tbn (default)\n    Metadata:\n      encoder         : Lavc62.11.100 libx264\n      handler_name    : VideoHandler\n      vendor_id       : [0][0][0][0]\n    Side data:\n      cpb: bitrate max/min/avg: 1000000/0/1000000 buffer size: 1000000 vbv_delay: N/A\nframe=    0 fps=0.0 q=0.0 size=       0KiB time=N/A bitrate=N/A speed=N/A elapsed=0:00:00.53    \nframe=    0 fps=0.0 q=0.0 size=       0KiB time=N/A bitrate=N/A speed=N/A elapsed=0:00:01.21    \nframe=    0 fps=0.0 q=0.0 size=       0KiB time=N/A bitrate=N/A speed=N/A elapsed=0:00:01.82    \nframe=   12 fps=4.9 q=51.0 size=       0KiB time=00:00:00.04 bitrate=   9.6kbits/s speed=0.0163x elapsed=0:00:02.44    \nframe=   33 fps= 11 q=48.0 size=       0KiB time=00:00:00.62 bitrate=   0.6kbits/s speed=0.199x elapsed=0:00:03.12    \nframe=   50 fps= 13 q=48.0 size=       0KiB time=00:00:00.96 bitrate=   0.4kbits/s speed=0.254x elapsed=0:00:03.77    \nframe=   76 fps= 17 q=53.0 size=       0KiB time=00:00:01.30 bitrate=   0.3kbits/s speed=0.296x elapsed=0:00:04.39    \nframe=   91 fps= 18 q=52.0 size=       0KiB time=00:00:01.74 bitrate=   0.2kbits/s speed=0.343x elapsed=0:00:05.07    \nframe=  114 fps= 20 q=48.0 size=       0KiB time=00:00:02.20 bitrate=   0.2kbits/s speed=0.384x elapsed=0:00:05.73    \nframe=  141 fps= 22 q=51.0 size=     256KiB time=00:00:02.68 bitrate= 782.7kbits/s speed=0.426x elapsed=0:00:06.29    \nframe=  160 fps= 23 q=54.0 size=     256KiB time=00:00:03.10 bitrate= 676.6kbits/s speed=0.447x elapsed=0:00:06.94    \nframe=  174 fps= 23 q=55.0 size=     256KiB time=00:00:03.42 bitrate= 613.3kbits/s speed=0.455x elapsed=0:00:07.52    \nframe=  194 fps= 24 q=55.0 size=     256KiB time=00:00:03.84 bitrate= 546.2kbits/s speed=0.474x elapsed=0:00:08.10    \nframe=  194 fps= 22 q=55.0 size=     256KiB time=00:00:03.84 bitrate= 546.2kbits/s speed=0.44x elapsed=0:00:08.71    \nframe=  194 fps= 21 q=55.0 size=     256KiB time=00:00:03.84 bitrate= 546.2kbits/s speed=0.41x elapsed=0:00:09.36    \nframe=  226 fps= 23 q=54.0 size=     512KiB time=00:00:04.38 bitrate= 957.7kbits/s speed=0.44x elapsed=0:00:09.94    \nframe=  250 fps= 24 q=-1.0 size=     512KiB time=00:00:04.64 bitrate= 904.0kbits/s speed=0.441x elapsed=0:00:10.52    \n[mp4 @ 000002ea6d2af840] Starting second pass: moving the moov atom to the beginning of the file\n[out#0/mp4 @ 000002ea6d2af740] video:587KiB audio:0KiB subtitle:0KiB other streams:0KiB global headers:0KiB muxing overhead: 0.640784%\nframe=  250 fps= 24 q=-1.0 Lsize=     591KiB time=00:00:04.96 bitrate= 975.5kbits/s speed=0.467x elapsed=0:00:10.62    \n[libx264 @ 000002ea6dfb0340] frame I:1     Avg QP:47.08  size: 25441\n[libx264 @ 000002ea6dfb0340] frame P:63    Avg QP:49.28  size:  5789\n[libx264 @ 000002ea6dfb0340] frame B:186   Avg QP:50.29  size:  1129\n[libx264 @ 000002ea6dfb0340] consecutive B-frames:  0.4%  0.8%  1.2% 97.6%\n[libx264 @ 000002ea6dfb0340] mb I  I16..4: 33.0% 63.6%  3.5%\n[libx264 @ 000002ea6dfb0340] mb P  I16..4:  1.5%  1.3%  0.0%  P16..4: 24.1%  1.7%  6.5%  0.0%  0.0%    skip:64.9%\n[libx264 @ 000002ea6dfb0340] mb B  I16..4:  0.0%  0.0%  0.0%  B16..8: 23.3%  0.0%  0.0%  direct: 0.0%  skip:76.7%  L0:38.6% L1:61.4% BI: 0.0%\n[libx264 @ 000002ea6dfb0340] 8x8 transform intra:52.7% inter:97.1%\n[libx264 @ 000002ea6dfb0340] direct mvs  spatial:94.6% temporal:5.4%\n[libx264 @ 000002ea6dfb0340] coded y,uvDC,uvAC intra: 27.6% 18.4% 0.2% inter: 1.4% 0.9% 0.0%\n[libx264 @ 000002ea6dfb0340] i16 v,h,dc,p: 24% 34%  6% 36%\n[libx264 @ 000002ea6dfb0340] i8 v,h,dc,ddl,ddr,vr,hd,vl,hu:  4%  1%  5% 15% 26% 13% 19%  7% 10%\n[libx264 @ 000002ea6dfb0340] i4 v,h,dc,ddl,ddr,vr,hd,vl,hu:  2%  0%  2% 22% 35% 12% 13%  5%  9%\n[libx264 @ 000002ea6dfb0340] i8c dc,h,v,p: 93%  5%  2%  0%\n[libx264 @ 000002ea6dfb0340] Weighted P-Frames: Y:0.0% UV:0.0%\n[libx264 @ 000002ea6dfb0340] ref P L0: 59.7%  1.3% 18.8% 10.1% 10.1%\n[libx264 @ 000002ea6dfb0340] ref B L0: 94.7%  4.5%  0.6%  0.2%\n[libx264 @ 000002ea6dfb0340] ref B L1: 96.1%  3.9%\n[libx264 @ 000002ea6dfb0340] kb/s:960.35\n",
  "seconds": 11.14114260673523,
  "probe_out": {}
}